<?xml version="1.0" encoding="UTF-8"?>
<!DOCTYPE svg PUBLIC "-//W3C//DTD SVG 1.1//EN" "http://www.w3.org/Graphics/SVG/1.1/DTD/svg11.dtd">
<!-- Creator: CorelDRAW X7 -->
<svg xmlns="http://www.w3.org/2000/svg" xml:space="preserve" width="3000px" height="3000px" version="1.1" style="shape-rendering:geometricPrecision; text-rendering:geometricPrecision; image-rendering:optimizeQuality; fill-rule:evenodd; clip-rule:evenodd"
viewBox="0 0 3000 3000"
 xmlns:xlink="http://www.w3.org/1999/xlink">
 <defs>
  <style type="text/css">
   <![CDATA[
    .fil0 {fill:#009247}
    .fil1 {fill:white}
    .fil3 {fill:white;fill-rule:nonzero}
    .fil2 {fill:url(#id0)}
   ]]>
  </style>
  <radialGradient id="id0" gradientUnits="userSpaceOnUse" gradientTransform="matrix(1.40024 -0 -0 1.40025 -598 -602)" cx="1494.07" cy="1504" r="53.1756" fx="1494.07" fy="1504">
   <stop offset="0" style="stop-opacity:1; stop-color:#59A9FF"/>
   <stop offset="1" style="stop-opacity:1; stop-color:#3E679B"/>
  </radialGradient>
 </defs>
 <g id="Layer_x0020_1">
  <metadata id="CorelCorpID_0Corel-Layer"/>
  <g id="_2088877059104">
   <path class="fil0" d="M1500 0c805,0 1458,672 1458,1500 0,828 -653,1500 -1458,1500 -805,0 -1458,-672 -1458,-1500 0,-828 653,-1500 1458,-1500z"/>
   <path class="fil1" d="M1500 69c774,0 1402,641 1402,1431 0,790 -628,1431 -1402,1431 -774,0 -1402,-641 -1402,-1431 0,-790 628,-1431 1402,-1431z"/>
   <path class="fil2" d="M146 1504c0,759 603,1375 1348,1375l0 0c744,0 1348,-616 1348,-1375 0,-759 -604,-1375 -1348,-1375 -745,0 -1348,616 -1348,1375l0 0z"/>
   <path class="fil1" d="M1296 610c7,-49 55,-62 59,-107 -21,10 -47,7 -66,-9 -21,39 -22,77 7,116z"/>
   <path class="fil1" d="M1389 468c24,-3 45,-21 65,-38 28,-24 67,-54 104,-51 -66,-21 -138,-6 -181,21 17,19 21,46 12,68z"/>
   <path class="fil1" d="M1704 625c-7,49 -55,63 -59,107 21,-10 47,-6 66,10 21,-39 22,-77 -7,-117z"/>
   <path class="fil1" d="M1611 767c-24,4 -45,22 -65,39 -28,24 -67,54 -104,51 66,21 137,6 181,-22 -17,-18 -21,-45 -12,-68z"/>
   <path class="fil1" d="M1507 409c48,7 61,57 105,61 -9,-22 -6,-48 9,-68 -38,-21 -75,-22 -114,7z"/>
   <path class="fil1" d="M1647 504c3,25 20,47 38,67 23,29 52,68 49,106 21,-67 6,-140 -21,-185 -18,17 -44,21 -66,12z"/>
   <path class="fil1" d="M1492 826c-47,-7 -60,-56 -104,-61 9,22 6,49 -9,68 38,22 75,23 113,-7z"/>
   <path class="fil1" d="M1353 731c-3,-25 -20,-46 -38,-67 -23,-28 -52,-68 -49,-105 -21,67 -6,140 21,184 18,-17 44,-21 66,-12z"/>
   <path class="fil1" d="M1708 405c21,21 21,55 0,76 -20,20 -53,20 -74,0 -20,-21 -20,-55 0,-76 21,-21 54,-21 74,0z"/>
   <path class="fil1" d="M1366 755c20,21 20,55 0,75 -21,21 -54,21 -74,0 -21,-20 -21,-54 0,-75 20,-21 53,-21 74,0z"/>
   <path class="fil1" d="M1708 830c-20,21 -53,21 -74,0 -20,-20 -20,-54 0,-75 21,-21 54,-21 74,0 21,21 21,55 0,75z"/>
   <path class="fil1" d="M1366 481c-21,20 -54,20 -74,0 -21,-21 -21,-55 0,-76 20,-21 53,-21 74,0 20,21 20,55 0,76z"/>
   <path class="fil1" d="M1543 661l17 17c4,3 3,5 3,8l0 13 0 0 0 0 0 1 0 0c0,0 0,1 0,1 0,0 0,0 0,0l0 0 0 1 0 0c0,0 0,0 0,1l0 0c0,0 0,0 0,0l0 0c0,0 0,1 0,1l0 0c0,0 0,0 0,0l0 0c0,1 0,1 0,1l0 0c0,0 0,0 0,1l0 0c-1,0 -1,0 -1,0l0 0c0,0 0,0 0,1l0 0c0,0 0,0 0,0l0 0c0,0 0,1 0,1l0 0c0,0 0,0 0,0l-1 0c0,1 0,1 0,1l0 0c0,0 0,0 0,0l0 1c0,0 0,0 0,0l0 0c0,0 0,0 -1,0l0 1c0,0 0,0 0,0l0 0c0,0 0,0 0,1l0 0c0,0 0,0 0,0l0 0c-1,0 -1,0 -1,1l0 0c0,0 0,0 0,0l0 0c0,0 0,0 0,0l-1 1c0,0 0,0 0,0l0 0c0,0 0,0 0,0 0,0 0,1 0,1 0,0 0,0 0,0l-1 0c0,0 0,0 0,0l0 0c0,1 0,1 0,1 0,0 0,0 0,0 0,0 0,0 -1,0l0 0 0 1c0,0 0,0 0,0 0,0 0,0 0,0 0,0 -1,0 -1,0 0,0 0,0 0,0l0 1 0 0c0,0 0,0 -1,0l0 0c0,0 0,0 0,0l0 0c0,1 0,1 0,1 0,0 -1,0 -1,0 0,0 0,0 0,0l0 0c0,0 0,0 0,0l0 0c-1,0 -1,1 -1,1l0 0c0,0 0,0 0,0l-1 0c0,0 0,0 0,0l0 0c0,0 0,0 0,0l0 1c-1,0 -1,0 -1,0l0 0 0 0c0,0 -1,0 -1,0 -2,1 -4,2 -6,2l0 -62zm0 -66l0 0 19 0 0 46 -18 0 39 40 39 -40 -19 0 0 -63c0,-4 0,-8 -2,-11 0,0 0,0 0,0l0 0 0 0c0,-1 0,-1 0,-1l0 0c0,0 0,0 0,0l-1 0c0,0 0,-1 0,-1l0 0c0,0 0,0 0,0l0 0c0,-1 0,-1 0,-1l-1 0c0,0 0,0 0,0l0 0c0,0 0,-1 0,-1 0,0 0,0 0,0 0,0 0,0 0,0l-1 0c0,0 0,-1 0,-1l0 0c0,0 0,0 0,0l0 0 0 0c-1,-1 -1,-1 -1,-1 0,0 0,0 0,0 0,0 0,0 0,0 0,0 0,0 0,0l-1 -1 0 0c0,0 0,0 0,0 0,0 0,0 0,0 0,0 0,0 0,-1 0,0 0,0 0,0 -1,0 -1,0 -1,0l0 0c0,0 0,0 0,0 0,0 0,0 0,0 0,0 -1,-1 -1,-1l0 0c0,0 0,0 0,0l0 0c0,0 0,0 -1,0l0 0c0,-1 0,-1 0,-1l0 0c0,0 0,0 -1,0l0 0c0,0 0,0 0,0l0 0c0,0 0,-1 0,-1l-1 0c0,0 0,0 0,0l0 0c0,0 0,0 -1,0l0 0c0,0 0,0 0,0l0 -1c0,0 0,0 -1,0l0 0c0,0 0,0 0,0l0 0c0,0 -1,0 -1,0l0 0c0,0 0,0 0,0l0 0c0,0 -1,-1 -1,-1l0 0c0,0 0,0 0,0l-1 0c0,0 0,0 0,0 0,0 0,0 0,0l-1 0c0,0 0,0 0,0l0 0c0,0 0,0 -1,0l0 0c0,0 0,0 0,-1l0 0c-1,0 -1,0 -1,0l0 0c0,0 0,0 -1,0l0 0c0,0 0,0 0,0l0 0c0,0 -1,0 -1,0l0 0 0 0 0 0c-1,0 -1,0 -1,0l0 0 -1 0 -12 0c-3,0 -5,0 -8,3l-16 17 0 22zm0 -43l0 0 0 -38 19 19 -19 19zm-65 111l0 0 0 18 44 0 0 -40 21 20 0 62c-1,0 -3,1 -4,1l-61 0 0 18 -20 -20 0 -39 20 -20zm65 -149l0 0 0 38 -21 21 0 -19 -44 0 0 41 -20 -19 0 -64c1,0 2,0 3,0l61 0 0 -19 21 21zm0 59l0 0 -21 22 21 0 0 -22zm-85 88l0 0 20 -20 -20 0 0 20zm0 61l0 0 -20 -20 20 -19 0 39zm0 -210l0 0 0 64 -18 -19c-4,-3 -3,-4 -3,-7l0 -13 0 -1 0 0 0 0 0 -1c0,0 0,0 0,0l0 -1 0 0c0,0 0,0 0,0l0 0c0,-1 0,-1 0,-1l0 0c0,0 0,0 0,0l0 -1c0,0 0,0 0,0l0 0c0,0 0,-1 0,-1l0 0c0,0 0,0 0,0l0 0c0,-1 0,-1 1,-1l0 0c0,0 0,0 0,0l0 -1c0,0 0,0 0,0l0 0c0,0 0,0 0,-1l0 0c0,0 0,0 0,0l0 0c0,0 0,-1 0,-1l0 0c1,0 1,0 1,0l0 0c0,-1 0,-1 0,-1l0 0c0,0 0,0 0,0l0 0c0,-1 0,-1 0,-1l1 0c0,0 0,0 0,0l0 -1c0,0 0,0 0,0l0 0c0,0 0,0 0,0l0 -1c1,0 1,0 1,0l0 0c0,0 0,0 0,0l0 -1c0,0 0,0 0,0l0 0c1,0 1,0 1,0l0 0c0,-1 0,-1 0,-1 0,0 0,0 0,0 0,0 0,0 0,0l0 0c1,-1 1,-1 1,-1l0 0c0,0 0,0 0,0 0,0 0,0 0,0 0,0 0,0 1,-1l0 0 0 0c0,0 0,0 0,0 0,0 0,0 0,0 0,0 1,0 1,-1 0,0 0,0 0,0l0 0 0 0c0,0 0,0 1,0l0 -1c0,0 0,0 0,0l0 0c0,0 0,0 0,0 0,0 0,0 1,0 0,0 0,0 0,0l0 -1c0,0 0,0 0,0l1 0c0,0 0,0 0,0l0 0c0,0 0,0 0,0l1 0c0,-1 0,-1 0,-1l0 0c0,0 0,0 0,0l0 0c1,0 1,0 1,0l0 0 0 0c0,0 0,-1 1,-1 2,-1 4,-1 7,-2zm0 129l0 0 -20 0 0 -46 18 0 -39 -40 -39 40 18 0 0 63c0,4 1,7 3,10 0,0 0,0 0,0l0 1 0 0c0,0 0,0 0,0l0 0c0,1 1,1 1,1l0 0c0,0 0,0 0,0l0 0c0,1 0,1 0,1l0 0c0,0 0,0 0,0l0 0c1,1 1,1 1,1l0 0c0,0 0,0 0,0 0,0 0,0 0,1 0,0 0,0 0,0l0 0c1,0 1,0 1,0l0 0c0,0 0,1 0,1l0 0 0 0c1,0 1,0 1,0 0,0 0,0 0,0 0,1 0,1 0,1 0,0 0,0 0,0l0 0 1 0c0,0 0,0 0,1 0,0 0,0 0,0 0,0 0,0 0,0 0,0 0,0 0,0 1,0 1,0 1,0l0 1c0,0 0,0 0,0 0,0 0,0 0,0 0,0 1,0 1,0l0 0c0,0 0,0 0,0l0 1c0,0 0,0 0,0l1 0c0,0 0,0 0,0l0 0c0,0 0,1 0,1l1 0c0,0 0,0 0,0l0 0c0,0 0,0 1,0l0 0c0,0 0,0 0,1l0 0c0,0 0,0 1,0l0 0c0,0 0,0 0,0l0 0c0,0 0,0 1,0l0 0c0,0 0,0 0,1l0 0c0,0 1,0 1,0l0 0c0,0 0,0 0,0l0 0c0,0 1,0 1,0l0 0c0,0 0,0 0,0l0 0c1,0 1,1 1,1l0 0c0,0 0,0 0,0l1 0c0,0 0,0 0,0l0 0c0,0 0,0 1,0l0 0c0,0 0,0 0,0l0 0c1,0 1,0 1,0l0 0c0,0 0,0 0,0l1 0c0,0 0,0 0,0l0 0c0,0 1,0 1,0l0 0 0 0 0 0c1,0 1,1 1,1l0 0 1 0 12 0c3,-1 5,0 8,-4l17 -18 0 -20z"/>
   <path class="fil3" d="M1066 2325l0 -147 44 0 -1 21c4,-8 8,-14 14,-17 6,-4 15,-6 25,-6 11,0 19,2 25,6 6,3 10,10 13,18 4,-8 8,-14 14,-18 7,-4 15,-6 25,-6 15,0 26,4 32,11 6,8 9,22 9,43l0 95 -45 0 0 -85c0,-11 -1,-18 -3,-21 -2,-3 -7,-5 -14,-5 -6,0 -10,2 -12,6 -2,3 -3,11 -3,23l0 82 -45 0 0 -85c0,-11 -1,-18 -3,-21 -2,-3 -7,-5 -14,-5 -6,0 -10,2 -12,6 -3,3 -4,11 -4,23l0 82 -45 0zm277 -85l0 23c0,13 1,21 4,24 2,3 6,5 13,5l6 0c7,0 11,-2 14,-5 2,-3 3,-11 3,-24l0 -23c0,-13 -1,-21 -3,-24 -3,-3 -7,-5 -14,-5l-6 0c-7,0 -11,2 -13,5 -3,3 -4,11 -4,24zm-46 -4c0,-22 4,-37 12,-46 9,-9 23,-14 44,-14l20 0c21,0 35,5 44,14 8,9 13,24 13,46l0 30c0,23 -5,38 -13,47 -9,9 -23,14 -44,14l-20 0c-21,0 -35,-5 -44,-14 -8,-9 -12,-24 -12,-47l0 -30zm228 -23c-7,0 -11,2 -13,5 -3,4 -4,11 -4,22l0 23c0,11 1,19 4,22 2,3 6,5 13,5l5 0c6,0 11,-2 13,-5 3,-3 4,-11 4,-22l0 -23c0,-11 -1,-18 -4,-22 -2,-3 -7,-5 -13,-5l-5 0zm-63 -95l46 0 0 78c3,-6 8,-11 14,-15 6,-3 14,-5 23,-5 17,0 29,5 36,15 8,10 12,25 12,45l0 30c0,21 -4,36 -11,46 -8,10 -20,15 -36,15 -10,0 -18,-2 -24,-6 -7,-3 -12,-9 -16,-17l1 21 -45 0 0 -207zm163 0l47 0 0 36 -47 0 0 -36zm0 60l47 0 0 147 -47 0 0 -147zm86 -60l47 0 0 207 -47 0 0 -207zm210 162c-1,16 -6,28 -15,36 -9,7 -22,11 -41,11l-19 0c-21,0 -36,-5 -45,-14 -8,-9 -12,-24 -12,-47l0 -30c0,-22 4,-37 12,-46 9,-9 24,-14 45,-14l19 0c21,0 35,5 44,14 8,9 13,24 13,46l0 23 -88 0 0 18c0,7 2,12 4,14 3,3 8,4 14,4l6 0c7,0 11,-1 14,-3 2,-2 4,-6 4,-12l45 0zm-87 -45l43 0 0 -5c0,-10 -1,-16 -4,-20 -2,-3 -7,-4 -14,-4l-6 0c-7,0 -12,1 -15,4 -2,3 -4,9 -4,18l0 7z"/>
   <path class="fil1" d="M427 951c-14,22 -28,40 -42,64 -111,190 -150,381 -116,611 11,75 43,184 71,248 25,58 69,163 107,212 8,11 14,19 29,24 66,20 88,-45 74,-72 -29,-59 -66,-116 -87,-179 -52,-141 -88,-239 -87,-394 1,-143 44,-292 120,-413l64 -95c19,-39 -62,-116 -133,-6zm2134 0c14,22 28,40 42,64 111,190 150,381 116,611 -11,75 -43,184 -71,248 -25,58 -69,163 -107,212 -8,11 -14,19 -29,24 -66,20 -88,-45 -74,-72 29,-59 66,-116 87,-179 52,-141 88,-239 87,-394 -1,-143 -44,-292 -120,-413l-64 -95c-19,-39 62,-116 133,-6zm-171 130c11,16 22,30 32,48 86,146 116,292 90,468 -9,58 -34,141 -55,190 -19,45 -53,125 -82,163 -6,8 -11,14 -22,18 -51,16 -67,-34 -57,-55 23,-45 51,-89 67,-137 40,-108 68,-183 67,-302 -1,-110 -34,-224 -92,-317l-49 -72c-15,-30 47,-89 101,-4zm-1792 0c-11,16 -22,30 -32,48 -86,146 -116,292 -90,468 9,58 34,141 55,190 19,45 53,125 82,163 6,8 11,14 22,18 51,16 67,-34 57,-55 -23,-45 -51,-89 -67,-137 -40,-108 -68,-183 -67,-302 1,-110 34,-224 92,-317l49 -72c15,-30 -47,-89 -101,-4zm143 146c-7,10 -14,20 -21,32 -56,95 -76,191 -59,306 6,38 22,92 36,124 13,29 35,82 54,107 4,5 7,9 15,11 33,11 43,-22 36,-36 -14,-29 -32,-58 -43,-89 -26,-71 -45,-120 -44,-198 1,-72 22,-146 60,-207l32 -47c10,-20 -30,-59 -66,-3zm1506 0c7,10 14,20 21,32 56,95 76,191 59,306 -6,38 -22,92 -36,124 -13,29 -35,82 -54,107 -4,5 -7,9 -14,11 -34,11 -44,-22 -37,-36 14,-29 33,-58 43,-89 26,-71 45,-120 44,-198 -1,-72 -22,-146 -60,-207l-32 -47c-10,-20 30,-59 66,-3z"/>
   <path class="fil3" d="M1619 1824l0 -255c0,-52 19,-94 58,-125 38,-32 89,-48 153,-48 63,0 112,16 145,46 34,31 51,75 51,132l0 250c0,25 -20,45 -44,45l-54 0c-24,0 -44,-20 -44,-45l0 -250c0,-28 -38,-50 -62,-50 -24,0 -62,22 -62,50l0 250c0,25 -20,45 -44,45l-53 0c-24,0 -44,-20 -44,-45z"/>
   <path class="fil3" d="M1080 1648l0 67c0,43 111,41 111,-5l0 -519c0,-28 23,-52 51,-52l28 0c28,0 51,24 51,52l0 0 0 488c0,73 -13,123 -39,150 -27,27 -74,40 -143,40 -67,0 -113,-12 -138,-34 -26,-23 -39,-65 -39,-128l0 -59c0,-28 23,-52 51,-52l16 0c28,0 51,24 51,52z"/>
   <path class="fil3" d="M1565 1466l-134 125 135 127c29,27 33,46 33,90 0,11 -2,21 -4,30 -2,10 -5,17 -9,23 -3,5 -7,8 -11,8 -2,0 -5,-1 -8,-3 -3,-2 -6,-4 -8,-6 -3,-3 -6,-6 -9,-8l-166 -155c-7,-5 -13,-11 -19,-16 -5,-6 -10,-12 -15,-20 -4,-7 -8,-16 -10,-28 -3,-13 -5,-27 -5,-45 0,-17 2,-32 5,-44 2,-12 6,-22 10,-29 5,-7 10,-14 15,-19 6,-6 12,-11 19,-17l164 -152c3,-2 6,-5 9,-8 3,-3 6,-5 10,-7 3,-2 6,-3 8,-3 6,0 11,6 16,18 5,12 8,27 8,45 0,50 0,61 -34,94z"/>
  </g>
 </g>
</svg>
