<?xml version="1.0" encoding="utf-8"?>
<svg id="Layer_1" data-name="Layer 1" viewBox="0 0 900 900" preserveAspectRatio="none" xmlns="http://www.w3.org/2000/svg">
  <defs>
    <style>
      .cls-1, .cls-2 {
        fill: #2e8435;
      }

      .cls-2, .cls-3 {
        fill-rule: evenodd;
      }

      .cls-4, .cls-3 {
        fill: #003c93;
      }
    </style>
  </defs>
  <path class="cls-2" d="m405.8,374.59l27.95-25.09h-30.95v-34.49h14.59l-27.28-24.74-26.17,24.33h13.36v41.45c.09,12.82,2.23,18.62,13.36,18.75l15.13-.21Z"/>
  <path class="cls-2" d="m490.14,290.47l-27.95,25.09h30.95v34.49h-14.59l27.27,24.74,26.17-24.33h-13.36v-41.45c-.09-12.82-2.23-18.62-13.36-18.75l-15.13.21Z"/>
  <path class="cls-2" d="m490.02,374.7l-25.09-27.95v30.95h-34.49v-14.59l-24.74,27.27,24.33,26.17v-13.36h41.45c12.82-.09,18.62-2.23,18.75-13.36l-.21-15.13Z"/>
  <path class="cls-2" d="m405.91,290.36l25.09,27.95v-30.95h34.49v14.59l24.74-27.27-24.33-26.17v13.36h-41.45c-12.82.09-18.62,2.23-18.75,13.36l.21,15.13Z"/>
  <path class="cls-3" d="m294.47,255.58c-3.54,5.63-6.51,5.67-9.18,29.63s12.54,49.22,12.54,49.22c0,0-1.57-11.59,5.73-21.13,7.29-9.54,21.81-23.72,28.63-33.27,6.82-9.54,8.6-21.75,8.6-21.75h0c-6.28,2.84-13.26,4.43-20.6,4.43-9.41,0-18.21-2.6-25.73-7.12Z"/>
  <circle class="cls-4" cx="320.08" cy="213.42" r="35.35"/>
  <path class="cls-3" d="m360.3,183.67s27.13-19.6,54.4-23.42c27.27-3.82,66.4,2.73,66.4,2.73,0,0-18.87,1.32-30.6,8.2-11.73,6.89-21.08,17.43-34.98,29.97-13.91,12.54-23.72,20.72-33.54,25.36-6.34,2.99-11.77,3.71-14.82,3.85,1.9-5.29,2.94-10.99,2.94-16.94,0-11.14-3.64-21.43-9.8-29.75h0Z"/>
  <path class="cls-2" d="m372.6,487.71c5.63,3.54,5.67,6.51,29.63,9.18,23.96,2.66,49.22-12.54,49.22-12.54,0,0-11.59,1.57-21.13-5.73-9.54-7.29-23.72-21.81-33.27-28.63-9.54-6.82-21.75-8.6-21.75-8.6h0c2.84,6.28,4.43,13.26,4.43,20.6,0,9.41-2.6,18.21-7.12,25.73Z"/>
  <circle class="cls-1" cx="330.44" cy="462.1" r="35.35"/>
  <path class="cls-2" d="m300.69,421.89s-19.6-27.13-23.42-54.4c-3.82-27.27,2.73-66.4,2.73-66.4,0,0,1.32,18.87,8.2,30.6,6.88,11.73,17.43,21.08,29.97,34.98,12.54,13.91,20.72,23.72,25.36,33.54,2.99,6.34,3.71,11.76,3.85,14.82-5.29-1.9-10.99-2.94-16.94-2.94-11.14,0-21.43,3.64-29.75,9.8h0Z"/>
  <path class="cls-3" d="m601.46,409.48c3.54-5.63,6.51-5.67,9.18-29.63,2.67-23.96-12.54-49.22-12.54-49.22,0,0,1.57,11.59-5.73,21.13-7.29,9.54-21.81,23.72-28.63,33.27-6.82,9.54-8.6,21.75-8.6,21.75h0c6.28-2.84,13.26-4.43,20.6-4.43,9.41,0,18.21,2.6,25.73,7.12Z"/>
  <circle class="cls-4" cx="575.86" cy="451.64" r="35.35"/>
  <path class="cls-3" d="m535.64,481.39s-27.13,19.6-54.4,23.42c-27.27,3.82-66.4-2.73-66.4-2.73,0,0,18.87-1.32,30.6-8.2,11.73-6.89,21.08-17.43,34.98-29.97,13.91-12.54,23.72-20.72,33.54-25.36,6.34-2.99,11.77-3.71,14.82-3.85-1.9,5.29-2.94,10.99-2.94,16.94,0,11.14,3.64,21.43,9.8,29.75h0Z"/>
  <path class="cls-2" d="m523.34,177.35c-5.63-3.54-5.67-6.51-29.63-9.18s-49.22,12.54-49.22,12.54c0,0,11.59-1.57,21.13,5.73,9.54,7.29,23.72,21.81,33.27,28.63,9.54,6.82,21.75,8.6,21.75,8.6h0c-2.84-6.28-4.43-13.26-4.43-20.6,0-9.41,2.6-18.21,7.12-25.73Z"/>
  <circle class="cls-1" cx="565.5" cy="202.96" r="35.35" transform="translate(237.05 706.05) rotate(-76.6)"/>
  <path class="cls-2" d="m595.25,243.18s19.6,27.13,23.42,54.4c3.82,27.27-2.73,66.4-2.73,66.4,0,0-1.32-18.87-8.2-30.6-6.89-11.73-17.43-21.08-29.97-34.98-12.54-13.91-20.72-23.72-25.36-33.54-2.99-6.34-3.71-11.77-3.85-14.82,5.29,1.9,10.99,2.94,16.94,2.94,11.14,0,21.43-3.64,29.75-9.8h0Z"/>
  <path class="cls-3" d="m25.61,663.47v-104.58h34.13c4.55,0,8.4.57,11.54,1.71,3.14,1.14,5.69,2.75,7.64,4.85,1.96,2.09,3.37,4.6,4.23,7.51.87,2.91,1.3,6.1,1.3,9.56,0,4.37-.34,8.12-1.02,11.26-.68,3.14-1.71,5.76-3.07,7.85-1.36,2.09-3.05,3.73-5.05,4.92-2,1.18-4.28,2.05-6.83,2.59,5.83.27,10.44,2.16,13.86,5.67,3.41,3.5,5.12,8.76,5.12,15.77,0,11.47-2.25,19.82-6.76,25.05-4.51,5.23-11.72,7.85-21.64,7.85H25.61Zm29.22-9.01c5.28,0,9.17-1.59,11.67-4.78,2.5-3.19,3.75-8.33,3.75-15.43,0-3.73-.2-6.87-.61-9.42-.41-2.55-1.09-4.62-2.05-6.21-.96-1.59-2.25-2.73-3.89-3.41-1.64-.68-3.64-1.02-6.01-1.02h-15.16v40.28h12.29Zm1.64-48.47c4.28,0,7.37-1.57,9.28-4.71,1.91-3.14,2.87-7.85,2.87-14.13,0-7.01-.89-11.9-2.66-14.68-1.77-2.78-4.85-4.16-9.22-4.16h-14.2v37.68h13.93Zm67.72,7.65c2.73,0,5.03-.39,6.89-1.16,1.87-.77,3.41-2.07,4.64-3.89,1.23-1.82,2.12-4.23,2.66-7.24.55-3,.82-6.74.82-11.2s-.23-7.96-.68-10.79c-.46-2.82-1.16-5.05-2.12-6.69-.96-1.64-2.21-2.78-3.75-3.41-1.55-.64-3.46-.96-5.73-.96h-13.38v45.33h10.65Zm-27.58,49.84v-104.58h32.77c4.92,0,9.1.55,12.56,1.64,3.46,1.09,6.24,2.73,8.33,4.91,2.09,2.19,3.62,4.94,4.57,8.26.96,3.32,1.43,7.21,1.43,11.67,0,7.1-.5,13.04-1.5,17.82-1,4.78-2.69,8.62-5.05,11.54-2.37,2.91-5.48,5.01-9.35,6.28-3.87,1.27-8.67,1.91-14.4,1.91h-12.42v31.08c.07,7.51-6.85,9.3-16.93,9.47h0Zm84.51-104.58v81.37c0,5.73-1.11,9.85-3.34,12.36-2.23,2.5-5.94,3.76-11.13,3.76-4.91,0-8.4-1.25-10.45-3.76-.6-.73-1.54-1.46-1.97-2.41-3.59-5.16-10.43-1.66-8.69,2.95.98,2.37,2.34,4.44,4.1,6.22,3.96,4,10.58,6.01,19.87,6.01,18.93,0,28.4-8.69,28.4-26.08v-69.58c-.39-7.96-11.03-11.32-16.79-10.84h0Zm33.8,86.91c1.17,2.07,2.7,3.82,4.57,5.25,3.09,2.37,6.96,3.55,11.61,3.55,2.18,0,4.28-.39,6.28-1.16,2-.77,3.75-1.87,5.26-3.28,1.5-1.41,2.68-3.14,3.55-5.19.86-2.05,1.3-4.35,1.3-6.9,0-2.28-.32-4.28-.96-6.01-.64-1.73-1.5-3.28-2.59-4.64-1.09-1.37-2.39-2.62-3.89-3.75-1.5-1.14-3.12-2.3-4.85-3.48-3.91-2.55-7.53-5.03-10.85-7.44-3.32-2.41-6.21-4.98-8.67-7.71-2.46-2.73-4.39-5.76-5.8-9.08-1.41-3.32-2.12-7.26-2.12-11.81,0-3.91.61-7.51,1.84-10.79,1.23-3.28,3.05-6.12,5.46-8.53,2.41-2.41,5.35-4.3,8.81-5.67,3.46-1.37,7.42-2.05,11.88-2.05,5.83,0,10.83,1.34,15.02,4.03,4.07,2.61,6.86,6.24,8.35,10.88,1.5,3.04-6.25,6.8-8.61,2.18-.95-1.61-2.16-2.96-3.63-4.05-2.5-1.87-5.48-2.8-8.94-2.8-4.82,0-8.58,1.32-11.26,3.96-2.68,2.64-4.03,6.37-4.03,11.2,0,4.01,1.02,7.33,3.07,9.97,2.05,2.64,4.6,5.03,7.65,7.17,3.05,2.14,6.37,4.19,9.97,6.14,3.6,1.96,6.92,4.23,9.97,6.83,3.05,2.59,5.6,5.71,7.65,9.35,2.05,3.64,3.07,8.19,3.07,13.65,0,4.28-.73,8.24-2.18,11.88-1.46,3.64-3.55,6.78-6.28,9.42s-6.08,4.71-10.04,6.21c-3.96,1.5-8.44,2.25-13.45,2.25-6.46,0-12.13-1.59-17-4.78-3.86-2.52-6.9-5.9-9.13-10.14-2.79-5.09,6.39-9.48,9-4.67Z"/>
  <path class="cls-2" d="m854.21,656.63v-54.65c0-4.28-.93-7.19-2.8-8.74-1.87-1.55-4.8-2.32-8.81-2.32-3.28,0-6.33.77-9.15,2.32-2.82,1.55-4.87,3.28-6.14,5.19v58.03c0,5.35-10.06,8.39-16.11,8.87v-90.56c8.53.26,15.95,6.15,16.11,9.22v5.56c2.09-2.73,5.19-5.14,9.28-7.24,4.1-2.09,8.87-3.14,14.34-3.14,6.55,0,11.42,1.75,14.61,5.26,3.19,3.5,4.78,8.94,4.78,16.32v64.58c-8.61.51-15.86-2.56-16.11-8.7Z"/>
  <path class="cls-2" d="m734,662.59c-1.17.61-2.36,1.11-3.55,1.5-2.69.87-6.21,1.3-10.58,1.3-6.92,0-12.33-2.12-16.25-6.35-3.91-4.23-5.87-10.13-5.87-17.68v-53.66h-6.42v-8.33h6.42v-16.65c12.66-.08,15.77,4.61,15.97,7.51v9h16.38v8.47h-16.38v53.66c0,4.64.93,8.26,2.8,10.85,1.87,2.59,4.85,3.89,8.94,3.89,2.65,0,4.74-.3,6.27-.91,5.58-1.38,7.23,5.53,2.27,7.39Z"/>
  <path class="cls-2" d="m669.21,657.53v-4.16c-1.82,3.73-4.55,6.67-8.19,8.81-3.64,2.14-7.92,3.21-12.83,3.21-7.46,0-13.04-2.07-16.73-6.21-3.69-4.14-5.53-9.9-5.53-17.27s1.46-13.02,4.37-16.93c2.91-3.91,7.42-6.92,13.52-9.01,2-.73,4.12-1.3,6.35-1.71,2.23-.41,4.42-.82,6.55-1.23,2.14-.41,4.19-.91,6.14-1.5,1.96-.59,3.62-1.39,4.98-2.39v-8.6c0-4.46-.91-7.83-2.73-10.1-1.82-2.28-5.28-3.41-10.38-3.41-3.82,0-7.12.84-9.9,2.53-1.77,1.07-3.33,2.56-4.67,4.47-4.97,4.7-11.22-2.2-7.88-5.86,2.35-3.31,5.26-5.8,8.72-7.48,4.6-2.23,9.58-3.35,14.95-3.35,3.82,0,7.44.3,10.85.89,3.41.59,6.37,1.73,8.88,3.41,2.5,1.68,4.48,4.05,5.94,7.1,1.46,3.05,2.18,7.03,2.18,11.95v64.51c-8.54.33-14.48-1.18-14.61-8.06v.42h0Zm-1.23-40.89c-1.82,1-3.96,1.8-6.42,2.39-2.46.59-4.82,1.25-7.1,1.98-4.55,1.46-7.83,3.69-9.83,6.69-2,3-3,6.92-3,11.74,0,5.46.98,9.44,2.94,11.95,1.96,2.5,5.03,3.75,9.22,3.75,3.19,0,6.01-.82,8.47-2.46,2.46-1.64,4.37-3.91,5.73-6.83v-29.22Z"/>
  <path class="cls-2" d="m601.63,656.66v-54.65c0-4.28-.93-7.19-2.8-8.74-1.87-1.55-4.8-2.32-8.81-2.32-3.28,0-6.33.77-9.15,2.32-2.82,1.55-4.87,3.28-6.14,5.19v58.54c-.17,5.26-8.01,8.26-16.11,8.36l-.09-106.38c6.31-.5,15.78,3.7,16.2,8.76v21.85c2.09-2.73,5.19-5.14,9.28-7.24,4.1-2.09,8.87-3.14,14.34-3.14,6.55,0,11.42,1.75,14.61,5.26,3.19,3.5,4.78,8.94,4.78,16.32v64.58c-6.05.26-16.12-1.71-16.11-8.7Z"/>
  <path class="cls-2" d="m437.13,650.58c.64.61,1.31,1.18,2.03,1.7,3,2.18,6.6,3.28,10.79,3.28s7.62-1.14,9.76-3.41c2.14-2.28,3.21-5.19,3.21-8.74,0-2.46-.36-4.53-1.09-6.21-.73-1.68-1.66-3.12-2.8-4.3-1.14-1.18-2.46-2.16-3.96-2.94-1.5-.77-3.03-1.48-4.57-2.12-3.46-1.37-6.62-2.84-9.49-4.44-2.87-1.59-5.35-3.39-7.44-5.39-2.09-2-3.73-4.3-4.92-6.89-1.18-2.59-1.77-5.62-1.77-9.08,0-4.1.66-7.69,1.98-10.79,1.32-3.09,3.16-5.67,5.53-7.71,2.37-2.05,5.16-3.6,8.4-4.64,3.23-1.05,6.76-1.57,10.58-1.57,4.64,0,8.99.84,13.04,2.53,2.89,1.2,5.23,3.13,7.03,5.79,3.23,4.72-3.69,9.82-8.47,4.94-.64-.6-1.34-1.13-2.11-1.58-2.41-1.41-5.17-2.12-8.26-2.12-1.82,0-3.57.23-5.26.68-1.68.46-3.16,1.16-4.44,2.12-1.27.96-2.28,2.16-3,3.62-.73,1.46-1.09,3.23-1.09,5.32,0,3.46.96,6.14,2.87,8.06,1.91,1.91,4.3,3.5,7.17,4.78,2.87,1.27,5.96,2.48,9.28,3.62,3.32,1.14,6.42,2.66,9.28,4.57,2.87,1.91,5.26,4.41,7.17,7.51,1.91,3.09,2.87,7.28,2.87,12.56,0,4-.71,7.6-2.12,10.79-1.41,3.19-3.34,5.87-5.8,8.06-2.46,2.18-5.39,3.87-8.81,5.05-3.41,1.18-7.08,1.77-10.99,1.77-6.55,0-12.15-1.32-16.79-3.96-2.35-1.33-4.38-3.03-6.1-5.09-5-5.5.33-12.12,8.31-5.76Z"/>
  <path class="cls-2" d="m402.59,612.49c-.77-10.36-1.22-27.44-14.96-27.44s-15.44,17.83-15.57,27.27l30.53.17h0Zm9.81,38.69c-.72,1.95-1.69,3.78-2.89,5.5-1.2,1.72-2.76,3.23-4.69,4.53-1.92,1.3-4.33,2.32-7.21,3.06-2.88.74-6.41,1.11-10.59,1.11-11.05,0-18.86-3.49-24.49-9.54-10.88-11.67-12.17-53.89-1.21-68.03,5.74-7.41,12.97-12.26,22.42-12.26,28.27,0,30.72,21.13,32.05,44.57h-44.93c-.58,16.85-2.35,35.62,18.41,35.79,4.55.04,7.98-.88,10.29-2.65,2.31-1.76,3.36-3.41,4.74-4.99,4.15-4.6,9.66-.53,8.09,2.9Z"/>
  <path class="cls-2" d="m330.97,656.15l-14.84-46.9-10.51,14.2v33.72c.07,6.06-11.46,8.19-16.93,8.19v-104.58c5.05-.24,16.83,1.74,16.93,10.41v37.38l34.13-47.79c3.66-4.1,12.2-1.39,10.99,1.04l-23.01,32,24.3,71.54c-5.83.04-18.49.69-21.07-9.21Z"/>
  <path class="cls-2" d="m537.75,612.49c-.78-10.36-1.22-27.44-14.96-27.44s-15.44,17.83-15.58,27.27l30.53.17h0Zm9.81,38.69c-.72,1.95-1.69,3.78-2.89,5.5-1.2,1.72-2.77,3.23-4.69,4.53-1.92,1.3-4.33,2.32-7.21,3.06-2.88.74-6.41,1.11-10.59,1.11-11.05,0-18.86-3.49-24.49-9.54-10.88-11.67-12.17-53.89-1.21-68.03,5.74-7.41,12.97-12.26,22.42-12.26,28.27,0,30.72,21.13,32.05,44.57h-44.93c-.58,16.85-2.35,35.62,18.41,35.79,4.55.04,7.98-.88,10.29-2.65,2.31-1.76,3.36-3.41,4.74-4.99,4.15-4.6,9.66-.53,8.09,2.9Z"/>
  <path class="cls-2" d="m783.31,657.53v-4.16c-1.82,3.73-4.55,6.67-8.19,8.81-3.64,2.14-7.92,3.21-12.83,3.21-7.46,0-13.04-2.07-16.73-6.21-3.69-4.14-5.53-9.9-5.53-17.27s1.46-13.02,4.37-16.93c2.91-3.91,7.42-6.92,13.52-9.01,2-.73,4.12-1.3,6.35-1.71s4.41-.82,6.55-1.23c2.14-.41,4.19-.91,6.14-1.5,1.96-.59,3.62-1.39,4.98-2.39v-8.6c0-4.46-.91-7.83-2.73-10.1-1.82-2.28-5.28-3.41-10.38-3.41-3.82,0-7.12.84-9.9,2.53-1.77,1.07-3.33,2.56-4.67,4.47-4.97,4.7-11.22-2.2-7.88-5.86,2.35-3.31,5.26-5.8,8.72-7.48,4.6-2.23,9.58-3.35,14.95-3.35,3.82,0,7.44.3,10.85.89,3.41.59,6.37,1.73,8.87,3.41,2.5,1.68,4.48,4.05,5.94,7.1,1.46,3.05,2.18,7.03,2.18,11.95v64.51c-8.54.33-14.48-1.18-14.61-8.06v.42h0Zm-1.23-40.89c-1.82,1-3.96,1.8-6.42,2.39-2.46.59-4.82,1.25-7.1,1.98-4.55,1.46-7.83,3.69-9.83,6.69-2,3-3,6.92-3,11.74,0,5.46.98,9.44,2.94,11.95,1.96,2.5,5.03,3.75,9.22,3.75,3.19,0,6.01-.82,8.47-2.46,2.46-1.64,4.37-3.91,5.73-6.83v-29.22Z"/>
  <path class="cls-3" d="m22.63,731.44v-36.38h13.65c2.78,0,5.01.36,6.69,1.1,1.68.74,2.99,1.87,3.94,3.4.96,1.52,1.43,3.12,1.43,4.8,0,1.55-.42,3.02-1.26,4.39-.84,1.37-2.11,2.48-3.81,3.33,2.2.64,3.9,1.74,5.07,3.3,1.19,1.55,1.78,3.39,1.78,5.51,0,1.71-.36,3.29-1.09,4.76-.72,1.46-1.61,2.59-2.67,3.39-1.06.79-2.39,1.39-3.98,1.79-1.6.41-3.56.61-5.88.61h-13.88Zm4.83-21.09h7.87c2.13,0,3.67-.15,4.59-.42,1.23-.36,2.15-.97,2.77-1.82.62-.85.93-1.91.93-3.18,0-1.21-.29-2.28-.87-3.19-.58-.92-1.41-1.56-2.48-1.9-1.08-.34-2.92-.51-5.53-.51h-7.28v11.03h0Zm0,16.82h9.06c1.56,0,2.65-.06,3.28-.18,1.1-.19,2.03-.52,2.78-.99.74-.47,1.36-1.14,1.84-2.03.48-.89.72-1.91.72-3.08,0-1.36-.35-2.54-1.05-3.55-.7-1.01-1.66-1.71-2.9-2.12-1.23-.41-3.01-.61-5.32-.61h-8.42v12.55h0Zm45.94.97c-1.66,1.41-3.26,2.41-4.79,2.99-1.53.58-3.18.87-4.94.87-2.9,0-5.12-.7-6.68-2.12-1.56-1.41-2.34-3.21-2.34-5.4,0-1.29.3-2.46.88-3.53.59-1.07,1.36-1.91,2.31-2.56.96-.64,2.02-1.14,3.22-1.47.88-.23,2.21-.45,3.98-.67,3.61-.42,6.28-.94,7.98-1.53.02-.61.03-1,.03-1.16,0-1.81-.42-3.09-1.27-3.84-1.14-1.01-2.85-1.51-5.1-1.51-2.11,0-3.67.37-4.67,1.11-1.01.74-1.74,2.04-2.23,3.92l-4.37-.61c.4-1.87,1.05-3.39,1.96-4.54.91-1.15,2.24-2.03,3.96-2.66,1.72-.62,3.73-.93,6-.93s4.09.26,5.5.8c1.41.53,2.45,1.19,3.11,2,.66.8,1.13,1.82,1.4,3.05.14.76.22,2.13.22,4.11v5.93c0,4.14.09,6.76.28,7.87.18,1.11.55,2.17,1.09,3.18h-4.68c-.45-.94-.74-2.04-.86-3.3h0Zm-.36-9.91c-1.63.66-4.06,1.22-7.32,1.68-1.85.26-3.15.56-3.91.89-.76.33-1.35.81-1.76,1.44-.41.64-.63,1.34-.63,2.12,0,1.18.45,2.17,1.35,2.96.91.79,2.23,1.19,3.96,1.19s3.25-.37,4.6-1.13c1.34-.75,2.33-1.77,2.96-3.07.48-1.01.72-2.49.72-4.45l.03-1.63h0Zm28.41,13.21v-3.34c-1.67,2.6-4.12,3.9-7.37,3.9-2.1,0-4.03-.58-5.78-1.74-1.76-1.15-3.13-2.77-4.1-4.84-.97-2.07-1.45-4.45-1.45-7.15s.44-5.01,1.31-7.15c.88-2.13,2.19-3.78,3.95-4.91,1.74-1.14,3.71-1.71,5.87-1.71,1.59,0,3.01.34,4.24,1.01,1.24.67,2.24,1.55,3.02,2.63v-13.09h4.47v36.38h-4.17Zm-14.13-13.15c0,3.37.71,5.89,2.14,7.55,1.42,1.67,3.11,2.5,5.05,2.5s3.62-.8,4.99-2.39c1.36-1.59,2.05-4.02,2.05-7.29,0-3.59-.69-6.23-2.09-7.92-1.39-1.68-3.11-2.52-5.15-2.52s-3.65.8-4.99,2.42c-1.33,1.62-2,4.17-2,7.65h0Zm42.59,9.85c-1.66,1.41-3.26,2.41-4.79,2.99-1.53.58-3.18.87-4.94.87-2.9,0-5.12-.7-6.68-2.12-1.56-1.41-2.34-3.21-2.34-5.4,0-1.29.3-2.46.88-3.53.59-1.07,1.36-1.91,2.31-2.56.96-.64,2.02-1.14,3.22-1.47.88-.23,2.21-.45,3.98-.67,3.61-.42,6.28-.94,7.98-1.53.02-.61.03-1,.03-1.16,0-1.81-.42-3.09-1.27-3.84-1.14-1.01-2.85-1.51-5.1-1.51-2.11,0-3.67.37-4.67,1.11-1.01.74-1.74,2.04-2.23,3.92l-4.37-.61c.4-1.87,1.05-3.39,1.96-4.54.91-1.15,2.24-2.03,3.96-2.66,1.72-.62,3.73-.93,6-.93s4.09.26,5.5.8c1.41.53,2.45,1.19,3.11,2,.66.8,1.13,1.82,1.4,3.05.14.76.22,2.13.22,4.11v5.93c0,4.14.09,6.76.28,7.87.18,1.11.55,2.17,1.09,3.18h-4.68c-.45-.94-.74-2.04-.86-3.3h0Zm-.36-9.91c-1.63.66-4.06,1.22-7.32,1.68-1.85.26-3.15.56-3.91.89-.76.33-1.35.81-1.76,1.44-.41.64-.63,1.34-.63,2.12,0,1.18.45,2.17,1.35,2.96.91.79,2.23,1.19,3.96,1.19s3.25-.37,4.6-1.13c1.34-.75,2.33-1.77,2.96-3.07.48-1.01.72-2.49.72-4.45l.03-1.63h0Zm11.39,13.21v-26.37h4.01v3.74c1.93-2.87,4.73-4.3,8.38-4.3,1.59,0,3.05.29,4.38.86,1.33.57,2.33,1.32,2.99,2.24.66.92,1.13,2.03,1.39,3.3.16.83.25,2.28.25,4.35v16.19h-4.47v-16.02c0-1.82-.17-3.18-.52-4.08-.35-.9-.97-1.62-1.85-2.16-.88-.53-1.92-.8-3.11-.8-1.9,0-3.53.6-4.91,1.81-1.38,1.2-2.07,3.5-2.07,6.87v14.39h-4.47Zm42.94,0v-36.38h13.74c2.41,0,4.26.12,5.54.35,1.79.3,3.29.86,4.5,1.69,1.21.84,2.18,2.01,2.92,3.51.74,1.5,1.1,3.15,1.1,4.95,0,3.08-.98,5.7-2.96,7.83-1.97,2.14-5.53,3.21-10.68,3.21h-9.33v14.84h-4.83Zm4.83-19.11h9.4c3.12,0,5.32-.58,6.63-1.74,1.3-1.16,1.96-2.79,1.96-4.89,0-1.52-.38-2.82-1.15-3.9-.77-1.08-1.79-1.8-3.04-2.15-.81-.21-2.31-.32-4.49-.32h-9.31v13.01h0Zm46.5,10.57l4.62.61c-.72,2.69-2.07,4.78-4.03,6.26-1.97,1.48-4.47,2.23-7.53,2.23-3.84,0-6.89-1.19-9.15-3.56-2.25-2.36-3.38-5.69-3.38-9.97s1.13-7.86,3.41-10.3c2.28-2.45,5.23-3.67,8.87-3.67s6.39,1.19,8.61,3.59c2.23,2.4,3.34,5.77,3.34,10.11,0,.26,0,.66-.03,1.19h-19.64c.17,2.89.98,5.11,2.46,6.64,1.47,1.53,3.3,2.3,5.5,2.3,1.64,0,3.03-.43,4.18-1.3,1.16-.86,2.08-2.24,2.75-4.14h0Zm-14.63-7.17h14.69c-.19-2.22-.76-3.88-1.68-4.99-1.42-1.72-3.26-2.58-5.52-2.58-2.05,0-3.77.69-5.17,2.06-1.39,1.37-2.16,3.21-2.31,5.51h0Zm24.91,15.7v-26.37h4.01v3.74c1.93-2.87,4.73-4.3,8.38-4.3,1.59,0,3.05.29,4.38.86,1.33.57,2.33,1.32,2.99,2.24.66.92,1.13,2.03,1.39,3.3.16.83.24,2.28.24,4.35v16.19h-4.47v-16.02c0-1.82-.17-3.18-.52-4.08-.35-.9-.97-1.62-1.85-2.16-.88-.53-1.92-.8-3.11-.8-1.9,0-3.53.6-4.91,1.81-1.38,1.2-2.07,3.5-2.07,6.87v14.39h-4.47Zm28.06,10.14l-.51-4.13c.98.26,1.83.4,2.56.4,1,0,1.79-.17,2.39-.5.6-.33,1.09-.8,1.47-1.39.28-.45.74-1.56,1.36-3.34.08-.25.21-.61.4-1.09l-10.01-26.46h4.78l5.51,15.23c.72,1.92,1.35,3.96,1.92,6.09.52-2.01,1.13-3.99,1.84-5.94l5.62-15.38h4.46l-9.97,26.83c-1.08,2.89-1.91,4.87-2.52,5.96-.8,1.46-1.71,2.54-2.73,3.23-1.03.69-2.26,1.03-3.68,1.03-.86,0-1.83-.18-2.89-.53h0Zm43.6-18.67l4.62.61c-.72,2.69-2.07,4.78-4.03,6.26-1.96,1.48-4.47,2.23-7.53,2.23-3.84,0-6.89-1.19-9.15-3.56-2.25-2.36-3.38-5.69-3.38-9.97s1.13-7.86,3.41-10.3c2.28-2.45,5.23-3.67,8.87-3.67s6.39,1.19,8.61,3.59c2.23,2.4,3.34,5.77,3.34,10.11,0,.26,0,.66-.02,1.19h-19.64c.17,2.89.98,5.11,2.46,6.64,1.47,1.53,3.3,2.3,5.5,2.3,1.64,0,3.03-.43,4.18-1.3,1.16-.86,2.08-2.24,2.75-4.14h0Zm-14.63-7.17h14.69c-.19-2.22-.76-3.88-1.68-4.99-1.42-1.72-3.26-2.58-5.52-2.58-2.05,0-3.77.69-5.17,2.06-1.39,1.37-2.16,3.21-2.31,5.51h0Zm24.81,15.7v-36.38h4.47v36.38h-4.47Zm29.38-8.54l4.62.61c-.72,2.69-2.07,4.78-4.03,6.26-1.97,1.48-4.47,2.23-7.53,2.23-3.84,0-6.89-1.19-9.15-3.56-2.25-2.36-3.38-5.69-3.38-9.97s1.13-7.86,3.41-10.3c2.28-2.45,5.23-3.67,8.87-3.67s6.39,1.19,8.61,3.59c2.23,2.4,3.34,5.77,3.34,10.11,0,.26,0,.66-.02,1.19h-19.64c.17,2.89.98,5.11,2.46,6.64,1.47,1.53,3.3,2.3,5.5,2.3,1.64,0,3.03-.43,4.18-1.3,1.16-.86,2.08-2.24,2.75-4.14h0Zm-14.63-7.17h14.69c-.19-2.22-.76-3.88-1.69-4.99-1.41-1.72-3.26-2.58-5.52-2.58-2.05,0-3.77.69-5.17,2.06-1.39,1.37-2.16,3.21-2.31,5.51h0Zm24.91,15.7v-26.37h4.01v3.74c1.93-2.87,4.73-4.3,8.38-4.3,1.59,0,3.05.29,4.38.86,1.33.57,2.33,1.32,2.99,2.24.66.92,1.13,2.03,1.39,3.3.16.83.25,2.28.25,4.35v16.19h-4.47v-16.02c0-1.82-.17-3.18-.52-4.08-.35-.9-.97-1.62-1.85-2.16-.88-.53-1.92-.8-3.11-.8-1.9,0-3.53.6-4.91,1.81-1.38,1.2-2.07,3.5-2.07,6.87v14.39h-4.47Zm27.44,2.19l4.32.61c.18,1.34.69,2.31,1.52,2.93,1.11.82,2.63,1.24,4.55,1.24,2.07,0,3.67-.41,4.79-1.24,1.13-.82,1.89-1.98,2.29-3.46.23-.91.34-2.81.32-5.72-1.96,2.3-4.39,3.46-7.3,3.46-3.63,0-6.44-1.3-8.42-3.92-1.99-2.61-2.98-5.74-2.98-9.39,0-2.52.46-4.84,1.36-6.96.91-2.13,2.23-3.76,3.96-4.92,1.73-1.16,3.76-1.74,6.1-1.74,3.11,0,5.67,1.27,7.69,3.81v-3.25h4.12v22.77c0,4.11-.41,7.01-1.25,8.72-.83,1.71-2.16,3.07-3.96,4.06-1.81.99-4.04,1.49-6.68,1.49-3.14,0-5.68-.7-7.61-2.12-1.94-1.41-2.87-3.53-2.8-6.37h0Zm3.66-15.82c0,3.45.69,5.96,2.06,7.55,1.38,1.58,3.1,2.38,5.17,2.38s3.78-.79,5.17-2.36c1.39-1.58,2.08-4.05,2.08-7.42s-.72-5.65-2.15-7.28c-1.43-1.63-3.16-2.45-5.17-2.45s-3.67.8-5.07,2.41c-1.39,1.61-2.08,4-2.08,7.17h0Zm24.6,15.82l4.32.61c.18,1.34.69,2.31,1.52,2.93,1.11.82,2.63,1.24,4.55,1.24,2.07,0,3.67-.41,4.79-1.24s1.89-1.98,2.29-3.46c.23-.91.34-2.81.32-5.72-1.96,2.3-4.39,3.46-7.3,3.46-3.62,0-6.44-1.3-8.42-3.92-1.99-2.61-2.98-5.74-2.98-9.39,0-2.52.46-4.84,1.36-6.96.91-2.13,2.23-3.76,3.96-4.92,1.73-1.16,3.76-1.74,6.1-1.74,3.11,0,5.67,1.27,7.69,3.81v-3.25h4.12v22.77c0,4.11-.41,7.01-1.25,8.72-.83,1.71-2.16,3.07-3.96,4.06-1.81.99-4.04,1.49-6.68,1.49-3.14,0-5.68-.7-7.61-2.12-1.94-1.41-2.87-3.53-2.8-6.37h0Zm3.66-15.82c0,3.45.69,5.96,2.06,7.55,1.38,1.58,3.1,2.38,5.17,2.38s3.78-.79,5.17-2.36c1.39-1.58,2.08-4.05,2.08-7.42s-.72-5.65-2.15-7.28c-1.43-1.63-3.16-2.45-5.17-2.45s-3.68.8-5.07,2.41c-1.39,1.61-2.08,4-2.08,7.17h0Zm42.65,10.33c-1.66,1.41-3.26,2.41-4.79,2.99-1.53.58-3.18.87-4.94.87-2.9,0-5.12-.7-6.68-2.12-1.56-1.41-2.34-3.21-2.34-5.4,0-1.29.3-2.46.88-3.53.59-1.07,1.36-1.91,2.31-2.56.96-.64,2.02-1.14,3.22-1.47.88-.23,2.21-.45,3.98-.67,3.61-.42,6.28-.94,7.98-1.53.02-.61.03-1,.03-1.16,0-1.81-.42-3.09-1.27-3.84-1.14-1.01-2.85-1.51-5.1-1.51-2.11,0-3.67.37-4.67,1.11-1.01.74-1.74,2.04-2.23,3.92l-4.37-.61c.4-1.87,1.05-3.39,1.97-4.54.91-1.15,2.24-2.03,3.96-2.66,1.72-.62,3.73-.93,6-.93s4.09.26,5.5.8c1.41.53,2.45,1.19,3.11,2,.66.8,1.13,1.82,1.4,3.05.14.76.22,2.13.22,4.11v5.93c0,4.14.09,6.76.28,7.87.18,1.11.55,2.17,1.09,3.18h-4.68c-.45-.94-.74-2.04-.86-3.3h0Zm-.36-9.91c-1.63.66-4.07,1.22-7.32,1.68-1.85.26-3.15.56-3.91.89-.76.33-1.35.81-1.76,1.44-.41.64-.63,1.34-.63,2.12,0,1.18.45,2.17,1.36,2.96.91.79,2.23,1.19,3.96,1.19s3.25-.37,4.6-1.13c1.34-.75,2.33-1.77,2.95-3.07.48-1.01.72-2.49.72-4.45l.03-1.63h0Zm11.34,13.21v-26.37h4.01v4.04c1.02-1.87,1.97-3.11,2.85-3.7.87-.6,1.83-.9,2.87-.9,1.51,0,3.04.47,4.6,1.41l-1.59,4.12c-1.08-.61-2.17-.92-3.25-.92-.97,0-1.85.3-2.62.88-.77.58-1.32,1.4-1.65,2.44-.5,1.58-.74,3.32-.74,5.21v13.78h-4.47Zm34.2-3.3c-1.66,1.41-3.26,2.41-4.79,2.99-1.53.58-3.18.87-4.94.87-2.9,0-5.12-.7-6.68-2.12-1.56-1.41-2.34-3.21-2.34-5.4,0-1.29.3-2.46.88-3.53.59-1.07,1.36-1.91,2.31-2.56.96-.64,2.02-1.14,3.22-1.47.88-.23,2.21-.45,3.98-.67,3.61-.42,6.27-.94,7.98-1.53.02-.61.03-1,.03-1.16,0-1.81-.42-3.09-1.27-3.84-1.14-1.01-2.85-1.51-5.1-1.51-2.11,0-3.67.37-4.67,1.11-1.01.74-1.74,2.04-2.23,3.92l-4.37-.61c.4-1.87,1.05-3.39,1.97-4.54.91-1.15,2.24-2.03,3.96-2.66,1.72-.62,3.73-.93,6-.93s4.09.26,5.51.8c1.41.53,2.45,1.19,3.11,2,.66.8,1.13,1.82,1.4,3.05.14.76.22,2.13.22,4.11v5.93c0,4.14.09,6.76.28,7.87.18,1.11.55,2.17,1.09,3.18h-4.68c-.45-.94-.74-2.04-.86-3.3h0Zm-.36-9.91c-1.63.66-4.06,1.22-7.32,1.68-1.85.26-3.15.56-3.91.89-.76.33-1.35.81-1.76,1.44-.41.64-.63,1.34-.63,2.12,0,1.18.45,2.17,1.35,2.96.91.79,2.23,1.19,3.96,1.19s3.25-.37,4.6-1.13c1.34-.75,2.33-1.77,2.95-3.07.48-1.01.72-2.49.72-4.45l.03-1.63h0Zm23.63,2.88l4.32-.59c.12,2.79.64,4.69,1.56,5.73.92,1.02,2.21,1.54,3.85,1.54,1.2,0,2.24-.28,3.12-.83.87-.56,1.48-1.31,1.81-2.26.33-.95.49-2.47.49-4.56v-25.08h4.83v24.79c0,3.04-.36,5.39-1.1,7.07-.74,1.67-1.9,2.94-3.5,3.82-1.59.87-3.46,1.31-5.61,1.31-3.19,0-5.63-.92-7.33-2.75-1.69-1.84-2.51-4.57-2.44-8.19h0Zm44.52,7.03c-1.66,1.41-3.26,2.41-4.79,2.99-1.53.58-3.18.87-4.94.87-2.9,0-5.12-.7-6.68-2.12-1.56-1.41-2.34-3.21-2.34-5.4,0-1.29.3-2.46.88-3.53.59-1.07,1.36-1.91,2.31-2.56.96-.64,2.02-1.14,3.22-1.47.88-.23,2.21-.45,3.98-.67,3.61-.42,6.28-.94,7.98-1.53.02-.61.03-1,.03-1.16,0-1.81-.42-3.09-1.27-3.84-1.14-1.01-2.85-1.51-5.1-1.51-2.11,0-3.67.37-4.67,1.11-1.01.74-1.74,2.04-2.23,3.92l-4.37-.61c.4-1.87,1.05-3.39,1.96-4.54.91-1.15,2.24-2.03,3.96-2.66,1.72-.62,3.73-.93,6-.93s4.09.26,5.5.8c1.41.53,2.45,1.19,3.11,2,.66.8,1.13,1.82,1.4,3.05.14.76.22,2.13.22,4.11v5.93c0,4.14.09,6.76.28,7.87.18,1.11.55,2.17,1.09,3.18h-4.68c-.45-.94-.74-2.04-.86-3.3h0Zm-.36-9.91c-1.63.66-4.07,1.22-7.32,1.68-1.85.26-3.15.56-3.91.89-.76.33-1.35.81-1.76,1.44-.41.64-.63,1.34-.63,2.12,0,1.18.45,2.17,1.35,2.96.91.79,2.23,1.19,3.96,1.19s3.25-.37,4.6-1.13c1.34-.75,2.33-1.77,2.96-3.07.48-1.01.72-2.49.72-4.45l.03-1.63h0Zm11.39,13.21v-26.37h4.01v3.73c.82-1.29,1.92-2.33,3.3-3.11,1.37-.79,2.93-1.18,4.68-1.18,1.95,0,3.55.41,4.79,1.21,1.25.81,2.13,1.94,2.63,3.4,2.1-3.07,4.82-4.61,8.17-4.61,2.63,0,4.65.72,6.05,2.17,1.41,1.45,2.13,3.68,2.13,6.68v18.08h-4.47v-16.6c0-1.78-.15-3.07-.44-3.85-.29-.79-.81-1.41-1.58-1.9-.76-.48-1.66-.72-2.68-.72-1.86,0-3.41.62-4.63,1.85-1.23,1.24-1.84,3.21-1.84,5.92v15.3h-4.47v-17.12c0-1.98-.37-3.47-1.09-4.46-.73-.99-1.92-1.49-3.57-1.49-1.25,0-2.41.33-3.48.99-1.07.66-1.84,1.63-2.32,2.9-.47,1.27-.71,3.11-.71,5.51v13.67h-4.47Zm42.33-31.3v-5.08h4.47v5.08h-4.47Zm0,31.3v-26.37h4.47v26.37h-4.47Zm11.29,0v-26.37h4.01v3.74c1.93-2.87,4.73-4.3,8.38-4.3,1.59,0,3.05.29,4.38.86,1.33.57,2.33,1.32,2.99,2.24.66.92,1.13,2.03,1.39,3.3.16.83.25,2.28.25,4.35v16.19h-4.47v-16.02c0-1.82-.17-3.18-.52-4.08-.35-.9-.97-1.62-1.85-2.16-.88-.53-1.92-.8-3.11-.8-1.9,0-3.53.6-4.91,1.81-1.38,1.2-2.07,3.5-2.07,6.87v14.39h-4.47Zm45.49-3.3c-1.66,1.41-3.26,2.41-4.79,2.99-1.53.58-3.18.87-4.94.87-2.9,0-5.12-.7-6.68-2.12-1.56-1.41-2.34-3.21-2.34-5.4,0-1.29.3-2.46.88-3.53.59-1.07,1.36-1.91,2.31-2.56.96-.64,2.02-1.14,3.22-1.47.88-.23,2.21-.45,3.98-.67,3.61-.42,6.28-.94,7.98-1.53.02-.61.03-1,.03-1.16,0-1.81-.42-3.09-1.27-3.84-1.14-1.01-2.85-1.51-5.1-1.51-2.11,0-3.67.37-4.67,1.11-1.01.74-1.74,2.04-2.23,3.92l-4.37-.61c.4-1.87,1.05-3.39,1.97-4.54.91-1.15,2.24-2.03,3.96-2.66,1.72-.62,3.73-.93,6-.93s4.09.26,5.5.8c1.41.53,2.45,1.19,3.11,2,.66.8,1.13,1.82,1.4,3.05.14.76.22,2.13.22,4.11v5.93c0,4.14.09,6.76.28,7.87.18,1.11.55,2.17,1.09,3.18h-4.68c-.45-.94-.74-2.04-.86-3.3h0Zm-.36-9.91c-1.63.66-4.07,1.22-7.32,1.68-1.85.26-3.15.56-3.91.89-.76.33-1.35.81-1.76,1.44-.41.64-.63,1.34-.63,2.12,0,1.18.45,2.17,1.36,2.96.91.79,2.23,1.19,3.96,1.19s3.25-.37,4.6-1.13c1.34-.75,2.33-1.77,2.95-3.07.48-1.01.72-2.49.72-4.45l.03-1.63h0Zm11.39,13.21v-26.37h4.01v3.74c1.93-2.87,4.73-4.3,8.38-4.3,1.59,0,3.05.29,4.38.86,1.33.57,2.33,1.32,2.99,2.24.66.92,1.13,2.03,1.39,3.3.16.83.25,2.28.25,4.35v16.19h-4.47v-16.02c0-1.82-.17-3.18-.52-4.08-.35-.9-.97-1.62-1.85-2.16-.88-.53-1.92-.8-3.11-.8-1.9,0-3.53.6-4.91,1.81-1.38,1.2-2.07,3.5-2.07,6.87v14.39h-4.47Zm41.36-11.69l4.52-.41c.21,1.83.71,3.33,1.5,4.51.79,1.17,2.01,2.12,3.66,2.85,1.65.72,3.51,1.08,5.58,1.08,1.84,0,3.45-.27,4.86-.82,1.41-.55,2.45-1.3,3.13-2.26.69-.96,1.03-2,1.03-3.12s-.33-2.13-.99-2.98c-.66-.85-1.75-1.56-3.28-2.14-.97-.37-3.13-.97-6.48-1.77-3.34-.8-5.68-1.56-7.02-2.27-1.74-.91-3.02-2.05-3.87-3.4-.86-1.35-1.28-2.86-1.28-4.53,0-1.85.52-3.57,1.57-5.16,1.04-1.6,2.56-2.81,4.57-3.64,2-.83,4.22-1.25,6.67-1.25,2.69,0,5.07.43,7.13,1.3,2.06.86,3.64,2.14,4.75,3.84,1.11,1.69,1.7,3.6,1.79,5.73l-4.62.36c-.25-2.3-1.08-4.03-2.51-5.2-1.43-1.18-3.55-1.76-6.34-1.76s-5.04.53-6.37,1.6c-1.33,1.07-2,2.35-2,3.86,0,1.3.47,2.38,1.41,3.23.93.84,3.34,1.71,7.26,2.59,3.91.89,6.6,1.66,8.05,2.32,2.11.97,3.68,2.2,4.68,3.7,1.01,1.49,1.51,3.21,1.51,5.16s-.55,3.75-1.66,5.46c-1.11,1.71-2.69,3.04-4.77,3.99-2.08.95-4.4,1.42-7,1.42-3.28,0-6.04-.48-8.26-1.44-2.23-.96-3.96-2.4-5.23-4.33-1.27-1.92-1.93-4.1-2-6.53Z"/>
  <path class="cls-3" d="m777.73,718.26c0-4.87,1.35-8.48,4.07-10.82,2.26-1.95,5.03-2.92,8.29-2.92,3.62,0,6.58,1.19,8.88,3.56,2.3,2.36,3.45,5.64,3.45,9.82,0,3.39-.51,6.05-1.52,7.99-1.02,1.94-2.5,3.45-4.45,4.52-1.94,1.07-4.07,1.61-6.36,1.61-3.69,0-6.67-1.18-8.95-3.54-2.28-2.36-3.41-5.77-3.41-10.21h0Zm4.57,0c0,3.37.74,5.89,2.21,7.56,1.48,1.68,3.34,2.52,5.58,2.52s4.06-.84,5.55-2.52c1.47-1.69,2.21-4.25,2.21-7.7,0-3.25-.75-5.72-2.23-7.39-1.48-1.68-3.33-2.52-5.53-2.52s-4.1.83-5.58,2.5c-1.47,1.67-2.21,4.18-2.21,7.55h0Zm23.59,5.3l4.42-.71c.24,1.77.94,3.12,2.07,4.07,1.14.94,2.73,1.42,4.76,1.42s3.58-.41,4.58-1.25c.99-.83,1.49-1.81,1.49-2.94,0-1.01-.45-1.8-1.34-2.38-.63-.4-2.15-.9-4.57-1.52-3.27-.82-5.53-1.53-6.8-2.13-1.26-.61-2.22-1.44-2.87-2.51-.65-1.06-.98-2.24-.98-3.52,0-1.18.27-2.26.8-3.26.54-1,1.27-1.83,2.19-2.49.69-.51,1.64-.94,2.84-1.29,1.2-.36,2.48-.53,3.85-.53,2.07,0,3.88.3,5.44.9,1.57.59,2.72,1.41,3.46,2.42.74,1.02,1.25,2.39,1.53,4.1l-4.37.61c-.19-1.37-.77-2.45-1.72-3.22-.95-.77-2.29-1.15-4.02-1.15-2.04,0-3.51.34-4.38,1.02-.87.68-1.31,1.47-1.31,2.38,0,.58.18,1.1.54,1.57.36.47.93.87,1.71,1.19.45.17,1.75.55,3.94,1.14,3.15.84,5.35,1.53,6.61,2.07,1.25.53,2.24,1.32,2.95,2.34.72,1.02,1.08,2.29,1.08,3.82s-.43,2.88-1.3,4.19c-.87,1.31-2.13,2.33-3.76,3.05-1.64.72-3.5,1.08-5.56,1.08-3.42,0-6.04-.71-7.83-2.13-1.8-1.42-2.94-3.52-3.44-6.31h0Zm27.19-23.43v-5.08h4.47v5.08h-4.47Zm0,31.3v-26.37h4.47v26.37h-4.47Zm28.52-3.3c-1.66,1.41-3.26,2.41-4.79,2.99-1.53.58-3.18.87-4.94.87-2.9,0-5.12-.7-6.68-2.12-1.56-1.41-2.34-3.21-2.34-5.4,0-1.29.3-2.46.88-3.53.59-1.07,1.36-1.91,2.31-2.56.96-.64,2.02-1.14,3.22-1.47.88-.23,2.21-.45,3.98-.67,3.61-.42,6.28-.94,7.98-1.53.02-.61.03-1,.03-1.16,0-1.81-.42-3.09-1.27-3.84-1.14-1.01-2.85-1.51-5.1-1.51-2.11,0-3.67.37-4.67,1.11-1.01.74-1.74,2.04-2.23,3.92l-4.37-.61c.4-1.87,1.05-3.39,1.96-4.54.91-1.15,2.24-2.03,3.96-2.66,1.72-.62,3.73-.93,6-.93s4.09.26,5.5.8c1.41.53,2.45,1.19,3.11,2,.66.8,1.13,1.82,1.4,3.05.14.76.22,2.13.22,4.11v5.93c0,4.14.09,6.76.28,7.87.18,1.11.55,2.17,1.09,3.18h-4.68c-.45-.94-.74-2.04-.86-3.3h0Zm-.36-9.91c-1.63.66-4.07,1.22-7.32,1.68-1.85.26-3.15.56-3.91.89-.76.33-1.35.81-1.76,1.44-.41.64-.63,1.34-.63,2.12,0,1.18.45,2.17,1.35,2.96.91.79,2.23,1.19,3.96,1.19s3.25-.37,4.6-1.13c1.34-.75,2.33-1.77,2.95-3.07.48-1.01.72-2.49.72-4.45l.03-1.63h0Zm11.29,13.21v-36.38h4.47v36.38h-4.47Z"/>
</svg>