<svg xmlns="http://www.w3.org/2000/svg" shape-rendering="geometricPrecision" text-rendering="geometricPrecision" image-rendering="optimizeQuality" fill-rule="evenodd" clip-rule="evenodd" viewBox="0 0 512 296.938"><path fill="#427D2A" d="M55.708 0H512v253.196l-32.271.146 2.253-185.798.086-2.218c.019-16.412-13.279-29.735-29.69-29.754l-396.67-.156V0z"/><path fill="#427D2A" d="M0 60.064h456.298v236.874H0z"/><path fill="#87CC71" d="M380.858 96.615c-.241 17.619 15.287 33.558 33.564 33.777v93.72c-19.252-.241-35.187 15.287-35.407 36.278H75.44c.242-19.253-15.29-35.191-33.564-35.41v-93.721c19.326.219 35.274-15.299 35.493-34.644h303.489z"/><path fill="#427D2A" d="M196.978 106.353h62.342c39.684 0 72.15 32.466 72.15 72.153 0 39.684-32.469 72.147-72.15 72.147h-62.342c-39.68 0-72.15-32.463-72.15-72.147 0-39.687 32.467-72.153 72.15-72.153z"/><path fill="#fff" fill-rule="nonzero" d="M232.975 213.193v-55.735h11.777l2.154 3.522a33.868 33.868 0 012.802-2.155 11.838 11.838 0 012.98-1.47c1.075-.357 2.312-.54 3.696-.54 2.302 0 4.313.412 6.036 1.221 1.72.811 3.149 2.048 4.272 3.698 1.123 1.65 1.97 3.749 2.515 6.282.549 2.534.825 5.509.825 8.908 0 4.021-.375 7.52-1.112 10.484-.74 2.965-2.103 5.27-4.058 6.893-1.963 1.625-4.787 2.446-8.478 2.446-1.627 0-3.277-.147-4.952-.434-1.672-.288-3.182-.74-4.526-1.363v18.243h-13.931zm18.671-27.865c.669 0 1.355-.207 2.047-.612.692-.405 1.274-1.211 1.723-2.405.453-1.193.682-2.993.682-5.387 0-2.394-.17-4.253-.501-5.564-.332-1.314-.829-2.217-1.474-2.696-.644-.475-1.45-.718-2.404-.718a8.227 8.227 0 00-2.803.468c-.858.309-1.531.633-2.01.969v14.866c.479.335 1.163.6 2.048.791.883.192 1.781.288 2.692.288zm-51.445-18.6h6.316c.766 0 1.436-.111 2.014-.325a3.5 3.5 0 001.469-1.041c.409-.476.707-1.091.898-1.831.192-.744.288-1.642.288-2.692 0-1.053-.096-1.941-.288-2.659-.191-.722-.489-1.281-.898-1.686a3.668 3.668 0 00-1.469-.899c-.578-.195-1.248-.29-2.014-.29h-6.316v11.423zm-13.934 29.444v-53.358h22.765c2.346 0 4.499.283 6.462.857 1.963.575 3.665 1.547 5.101 2.909 1.436 1.367 2.548 3.197 3.339 5.495.792 2.298 1.183 5.196 1.183 8.691 0 2.202-.192 4.12-.571 5.745-.383 1.627-.898 3.004-1.547 4.127-.644 1.127-1.41 2.074-2.298 2.839a17.768 17.768 0 01-2.835 2.011l9.265 20.684h-14.148l-7.471-18.386h-5.311v18.386h-13.934z"/></svg>